1.8Hz3min_grf.mot
version=1
nRows=10
nColumns 19
inDegrees=yes
endheader
time	1_ground_force_vx	1_ground_force_vy	1_ground_force_vz	1_ground_force_px	1_ground_force_py	1_ground_force_pz	1_ground_torque_x	1_ground_torque_y	1_ground_torque_z	2_ground_force_vx	2_ground_force_vy	2_ground_force_vz	2_ground_force_px	2_ground_force_py	2_ground_force_pz	2_ground_torque_x	2_ground_torque_y	2_ground_torque_z
            2.502500	           -0.326797	           11.723695	           -1.462206	           -0.206318	            0.005996	           -0.351347	            0.026233	           -0.941085	            0.117374	            0.319212	            1.680947	           -6.282592	           -0.232311	            0.006130	           -0.833667	           -0.793657	            1.347206	            0.476414
            2.503000	           -0.280498	           11.722917	           -1.278896	           -0.200287	            0.006030	           -0.358980	            0.022977	           -0.960301	            0.104763	            0.084339	            1.863914	           -6.187979	           -0.232311	            0.006130	           -0.833667	           -0.793597	            1.328368	            0.457496
            2.503500	           -0.097192	           12.083484	           -1.277805	           -0.198552	            0.006016	           -0.355609	            0.007512	           -0.933979	            0.098766	            0.177292	            2.049071	           -6.375074	           -0.232311	            0.006130	           -0.833667	           -0.699714	            1.347411	            0.514074
            2.504000	           -0.050894	           12.082706	           -1.094496	           -0.204287	            0.006027	           -0.358378	            0.003549	           -0.842516	            0.076318	            0.461132	            1.312823	           -6.190109	           -0.232311	            0.006130	           -0.833667	           -0.850166	            1.384948	            0.438872
            2.504500	            0.178387	           11.722219	           -1.096610	           -0.194259	            0.006021	           -0.356492	           -0.011938	           -0.784462	            0.073386	            0.507256	            1.497642	           -6.330257	           -0.232311	            0.006130	           -0.833667	           -0.643355	            1.329247	            0.363181
            2.505000	            0.086245	           11.722988	           -1.279806	           -0.204303	            0.005978	           -0.347044	           -0.006277	           -0.853179	            0.093142	           -0.101108	            1.311128	           -6.283727	           -0.232311	            0.006130	           -0.833667	           -0.868891	            1.366042	            0.419963
            2.505500	            0.269225	           12.624745	           -1.368109	           -0.204409	            0.006020	           -0.356643	           -0.018621	           -0.873206	            0.094627	            0.129175	            2.416696	           -6.232956	           -0.232311	            0.006130	           -0.833667	           -0.699594	            1.309735	            0.476239
            2.506000	           -0.051805	           12.084279	           -1.461343	           -0.204562	            0.006046	           -0.362743	            0.004133	           -0.964057	            0.116583	            0.459659	            1.682291	           -6.517292	           -0.232311	            0.006130	           -0.833667	           -0.680799	            1.300551	            0.419647
            2.506500	           -0.005635	           11.543098	           -1.372064	           -0.201131	            0.006075	           -0.369401	            0.000465	           -0.952129	            0.113174	            0.226759	            1.312981	           -6.471578	           -0.232311	            0.006130	           -0.833667	           -0.755959	            1.318782	            0.532847
            2.507000	           -0.050909	           11.542106	           -1.142670	           -0.201608	            0.006091	           -0.373094	            0.004351	           -0.986503	            0.097664	            0.414159	            1.313658	           -6.471658	           -0.232311	            0.006130	           -0.833667	           -0.831252	            1.347272	            0.419879
